<svg width="82" height="38" viewBox="0 0 82 38" fill="none" xmlns="http://www.w3.org/2000/svg">
<path d="M17.1973 20.6689C16.8945 20.6299 16.5186 20.5957 16.0693 20.5664C15.6201 20.5371 15.1318 20.5127 14.6045 20.4932C14.0869 20.4639 13.5449 20.4443 12.9785 20.4346C12.4219 20.4248 11.8799 20.415 11.3525 20.4053C10.835 20.3955 10.3467 20.3906 9.8877 20.3906C9.43848 20.3809 9.0625 20.376 8.75977 20.376C8.33984 20.376 7.9248 20.376 7.51465 20.376C7.10449 20.376 6.68945 20.3857 6.26953 20.4053C6.25 21.7627 6.24512 23.1055 6.25488 24.4336C6.26465 25.7617 6.26953 27.1094 6.26953 28.4766C6.26953 28.7109 6.26953 28.9453 6.26953 29.1797C6.26953 29.4043 6.2793 29.6387 6.29883 29.8828L2.69531 29.9414L2.34375 8.93555L19.2041 9.05273L19.1455 12.7734C18.7354 12.5195 18.2031 12.2852 17.5488 12.0703C16.9043 11.8555 16.1963 11.665 15.4248 11.499C14.6533 11.3232 13.8428 11.1719 12.9932 11.0449C12.1533 10.918 11.333 10.8105 10.5322 10.7227C9.73145 10.625 8.97949 10.5469 8.27637 10.4883C7.57324 10.4297 6.97266 10.3857 6.47461 10.3564C6.41602 11.8018 6.37207 13.2422 6.34277 14.6777C6.31348 16.1035 6.28906 17.5391 6.26953 18.9844H6.32812C6.76758 18.9844 7.28027 18.9795 7.86621 18.9697C8.46191 18.96 9.0918 18.9453 9.75586 18.9258C10.4199 18.9062 11.0986 18.8867 11.792 18.8672C12.4951 18.8379 13.1787 18.8086 13.8428 18.7793C14.5068 18.7402 15.1318 18.7061 15.7178 18.6768C16.3037 18.6377 16.8164 18.5938 17.2559 18.5449L17.1973 20.6689Z" fill="#E94560"/>
<path d="M26.3672 12.7148C26.3672 13.0664 26.2988 13.3984 26.1621 13.7109C26.0352 14.0234 25.8545 14.2969 25.6201 14.5312C25.3857 14.7656 25.1123 14.9512 24.7998 15.0879C24.4873 15.2246 24.1504 15.293 23.7891 15.293C23.4277 15.293 23.0859 15.2246 22.7637 15.0879C22.4512 14.9512 22.1777 14.7656 21.9434 14.5312C21.709 14.2969 21.5234 14.0234 21.3867 13.7109C21.25 13.3984 21.1816 13.0664 21.1816 12.7148C21.1816 12.3535 21.25 12.0166 21.3867 11.7041C21.5234 11.3818 21.709 11.1035 21.9434 10.8691C22.1777 10.6348 22.4512 10.4492 22.7637 10.3125C23.0859 10.1758 23.4277 10.1074 23.7891 10.1074C24.1504 10.1074 24.4873 10.1758 24.7998 10.3125C25.1123 10.4492 25.3857 10.6348 25.6201 10.8691C25.8545 11.1035 26.0352 11.3818 26.1621 11.7041C26.2988 12.0166 26.3672 12.3535 26.3672 12.7148ZM25.8691 16.7725L24.7559 30.8643L21.9287 30.5713L21.7529 16.5527L25.8691 16.7725ZM32.915 6.5332L32.1973 30.0586L29.3994 30.293L28.6816 6.92871L32.915 6.5332ZM39.375 18.75C39.6191 18.3789 39.9023 18.0273 40.2246 17.6953C40.5469 17.3535 40.9082 17.0605 41.3086 16.8164C41.7188 16.5625 42.1631 16.3623 42.6416 16.2158C43.1299 16.0693 43.6523 15.9961 44.209 15.9961C44.9316 15.9961 45.5371 16.1523 46.0254 16.4648C46.5137 16.7676 46.9092 17.168 47.2119 17.666C47.8271 17.0898 48.5254 16.626 49.3066 16.2744C50.0879 15.9229 50.8887 15.7471 51.709 15.7471C52.3047 15.7471 52.832 15.8545 53.291 16.0693C53.7598 16.2744 54.165 16.5576 54.5068 16.9189C54.8584 17.2705 55.1514 17.6807 55.3857 18.1494C55.6201 18.6182 55.8057 19.1113 55.9424 19.6289C56.0889 20.1465 56.1914 20.6738 56.25 21.2109C56.3184 21.7383 56.3525 22.2461 56.3525 22.7344C56.3525 23.2812 56.3135 23.916 56.2354 24.6387C56.167 25.3516 56.0645 26.0791 55.9277 26.8213C55.791 27.5635 55.625 28.2764 55.4297 28.96C55.2441 29.6338 55.0342 30.2002 54.7998 30.6592L50.8008 30.293C51.1719 29.5801 51.5039 28.8086 51.7969 27.9785C52.0508 27.2656 52.2803 26.4502 52.4854 25.5322C52.6904 24.6045 52.793 23.623 52.793 22.5879C52.793 21.9434 52.7539 21.3379 52.6758 20.7715C52.5977 20.2051 52.4512 19.7168 52.2363 19.3066C52.0312 18.8867 51.7432 18.5547 51.3721 18.3105C51.0107 18.0664 50.542 17.9443 49.9658 17.9443C49.5557 17.9443 49.165 18.0322 48.7939 18.208C48.4326 18.374 48.0811 18.5938 47.7393 18.8672C47.8955 19.3359 48.0029 19.8242 48.0615 20.332C48.1299 20.8301 48.1641 21.3232 48.1641 21.8115C48.1641 22.3096 48.1396 22.9199 48.0908 23.6426C48.042 24.3652 47.9736 25.1074 47.8857 25.8691C47.8076 26.6211 47.7148 27.3389 47.6074 28.0225C47.5098 28.7061 47.4072 29.2529 47.2998 29.6631L43.3008 29.3701C43.5645 28.6572 43.7988 27.8809 44.0039 27.041C44.1797 26.3184 44.3408 25.4785 44.4873 24.5215C44.6436 23.5645 44.7217 22.5391 44.7217 21.4453C44.7217 21.1035 44.6777 20.7373 44.5898 20.3467C44.5117 19.9463 44.375 19.5801 44.1797 19.248C43.9941 18.9062 43.7451 18.623 43.4326 18.3984C43.1299 18.1738 42.7588 18.0615 42.3193 18.0615C42.0361 18.0615 41.7627 18.1445 41.499 18.3105C41.2354 18.4668 40.9814 18.6768 40.7373 18.9404C40.4932 19.2041 40.2588 19.5117 40.0342 19.8633C39.8193 20.2051 39.6191 20.5664 39.4336 20.9473L39.7998 29.9121L35.8887 30.293L36.6504 16.3477L39.2871 16.5527L39.375 18.75Z" fill="white"/>
<path d="M69.9047 8.20321C68.3947 8.17652 66.8943 8.44751 65.489 9.00069C64.0838 9.55387 62.8013 10.3784 61.7147 11.4273C60.6281 12.4761 59.7588 13.7287 59.1563 15.1135C58.5538 16.4983 58.2299 17.9882 58.2033 19.4982C58.1766 21.0082 58.4475 22.5086 59.0007 23.9138C59.5539 25.3191 60.3785 26.6016 61.4273 27.6882C62.4761 28.7748 63.7287 29.6441 65.1135 30.2466C66.4983 30.8491 67.9883 31.1729 69.4982 31.1996L69.5134 30.343C68.1159 30.3183 66.737 30.0186 65.4553 29.461C64.1737 28.9034 63.0144 28.0988 62.0437 27.0932C61.073 26.0875 60.3099 24.9006 59.7979 23.6C59.286 22.2995 59.0352 20.9108 59.0599 19.5133C59.0846 18.1159 59.3843 16.7369 59.9419 15.4553C60.4995 14.1736 61.3041 13.0144 62.3097 12.0437C63.3153 11.073 64.5023 10.3099 65.8029 9.79788C67.1034 9.28591 68.4921 9.03512 69.8895 9.05981L69.9047 8.20321Z" fill="#E94560"/>
<path d="M69.4982 31.1996C71.0082 31.2263 72.5086 30.9553 73.9139 30.4021C75.3191 29.849 76.6016 29.0244 77.6882 27.9756C78.7748 26.9267 79.6441 25.6742 80.2466 24.2893C80.8491 22.9045 81.173 21.4146 81.1996 19.9046C81.2263 18.3947 80.9553 16.8942 80.4022 15.489C79.849 14.0838 79.0244 12.8012 77.9756 11.7147C76.9268 10.6281 75.6742 9.75872 74.2894 9.15623C72.9045 8.55374 71.4146 8.2299 69.9047 8.20321L69.8895 9.05982C71.287 9.08451 72.6659 9.38423 73.9476 9.94183C75.2292 10.4994 76.3885 11.304 77.3592 12.3097C78.3299 13.3153 79.093 14.5023 79.605 15.8028C80.1169 17.1034 80.3677 18.492 80.343 19.8895C80.3183 21.287 80.0186 22.6659 79.461 23.9475C78.9034 25.2292 78.0988 26.3885 77.0932 27.3592C76.0876 28.3299 74.9006 29.093 73.6 29.6049C72.2995 30.1169 70.9108 30.3677 69.5134 30.343L69.4982 31.1996Z" fill="#E94560"/>
<path d="M76.7015 18.8354C77.3681 19.2203 77.3681 20.1825 76.7015 20.5674L66.9515 26.1966C66.2848 26.5815 65.4515 26.1004 65.4515 25.3306V14.0722C65.4515 13.3024 66.2848 12.8213 66.9515 13.2062L76.7015 18.8354Z" fill="#E94560"/>
</svg>
